<svg xmlns="http://www.w3.org/2000/svg" width="3221" height="3221" fill="none"><g clip-path="url(#a)" opacity=".2"><path fill="url(#b)" d="M3221 1606.49H1996.48v7.98H3221v-7.98z"/><path fill="url(#c)" d="m3218.93 1526.51-1223.04 60.03.39 7.97 1223.04-60.03-.39-7.97z"/><path fill="url(#d)" d="m3212.78 1447.85-1218.66 119.71.79 7.94 1218.65-119.71-.78-7.94z"/><path fill="url(#e)" d="m3203.01 1369.78-1211.42 178.67 1.17 7.89 1211.41-178.67-1.16-7.89z"/><path fill="url(#f)" d="m3189.46 1292.13-1201.12 238.26 1.56 7.83 1201.11-238.26-1.55-7.83z"/><path fill="url(#g)" d="m3172.31 1216.19-1188.19 296.03 1.93 7.75 1188.19-296.03-1.93-7.75z"/><path fill="url(#h)" d="m3151.46 1141.39-1172.25 353.93 2.31 7.64 1172.25-353.92-2.31-7.65z"/><path fill="url(#i)" d="m3127.42 1068.73-1154.14 409.15 2.66 7.52 1154.14-409.15-2.66-7.52z"/><path fill="url(#j)" d="M3100.12 997.555 1966.54 1460.62l3.02 7.39 1133.58-463.07-3.02-7.385z"/><path fill="url(#k)" d="M3069.5 927.854 1959.08 1444l3.36 7.24 1110.42-516.149-3.36-7.237z"/><path fill="url(#l)" d="M3035.27 859.308 1951.29 1428.89l3.72 7.07 1083.98-569.587-3.72-7.065z"/><path fill="url(#m)" d="M2998.59 793.643 1942.32 1413.11l4.04 6.88 1056.27-619.463-4.04-6.884z"/><path fill="url(#n)" d="M2959.17 729.901 1932.21 1396.82l4.34 6.69 1026.97-666.916-4.35-6.693z"/><path fill="url(#o)" d="m2916.38 667.944-994.16 714.906 4.66 6.48 994.16-714.906-4.66-6.48z"/><path fill="url(#p)" d="m2870.97 607.912-959.78 760.438 4.95 6.26 959.78-760.442-4.95-6.256z"/><path fill="url(#q)" d="m2823.28 550.914-923.87 803.676 5.23 6.02 923.88-803.675-5.24-6.021z"/><path fill="url(#r)" d="m2772.87 495.846-886.02 845.224 5.51 5.78 886.02-845.229-5.51-5.775z"/><path fill="url(#s)" d="m2719.39 442.625-844.91 886.315 5.77 5.51 844.92-886.318-5.78-5.507z"/><path fill="url(#t)" d="m2664.35 392.626-803.84 923.734 6.02 5.24 803.84-923.735-6.02-5.239z"/><path fill="url(#u)" d="M2606.45 344.793 1846.68 1305.1l6.26 4.95 759.77-960.305-6.26-4.952z"/><path fill="url(#v)" d="m2546.34 299.607-714.38 994.533 6.48 4.66 714.39-994.537-6.49-4.656z"/><path fill="url(#w)" d="M2483.96 257.222 1817.21 1284.3l6.7 4.35 666.74-1027.083-6.69-4.345z"/><path fill="url(#x)" d="M2420.37 218.217 1801.27 1274.7l6.89 4.04 619.09-1056.488-6.88-4.035z"/><path fill="url(#y)" d="M2354.27 181.763 1785.44 1266.14l7.07 3.71 568.83-1084.38-7.07-3.707z"/><path fill="url(#z)" d="m2286.49 148.433-517.7 1109.697 7.23 3.38 517.7-1109.703-7.23-3.374z"/><path fill="url(#A)" d="m2216.35 118.02-463.66 1133.34 7.38 3.02 463.67-1133.338-7.39-3.022z"/><path fill="url(#B)" d="M2144.03 90.625 1736.28 1245.26l7.53 2.66L2151.55 93.283l-7.52-2.658z"/><path fill="url(#C)" d="M2071.72 67.198 1718.41 1239.64l7.64 2.3L2079.36 69.5l-7.64-2.302z"/><path fill="url(#D)" d="m1996.42 46.631-295.4 1188.349 7.74 1.93L2004.17 48.557l-7.75-1.926z"/><path fill="url(#E)" d="M1920.62 29.987 1683.2 1231.27l7.82 1.54L1928.45 31.534l-7.83-1.547z"/><path fill="url(#F)" d="M1843.78 16.837 1664.27 1228.12l7.89 1.17L1851.68 18.007l-7.9-1.17z"/><path fill="url(#G)" d="M1765.71 7.464 1645.58 1226.07l7.94.79L1773.65 8.247l-7.94-.783z"/><path fill="url(#H)" d="m1685.93 1.671-59.39 1223.079 7.97.38L1693.9 2.058l-7.97-.387z"/><path fill="url(#I)" d="M1614.47 0h-7.98v1224.52h7.98V0z"/><path fill="url(#J)" d="m1534.6 1.849-7.98.391 60.04 1223.04 7.97-.39L1534.6 1.849z"/><path fill="url(#K)" d="m1455.49 7.498-7.94.781 119.91 1218.631 7.95-.78L1455.49 7.498z"/><path fill="url(#L)" d="m1377.21 16.698-7.9 1.17 179.52 1211.292 7.89-1.17L1377.21 16.698z"/><path fill="url(#M)" d="m1300.03 29.95-7.83 1.553 238.27 1201.117 7.82-1.56L1300.03 29.95z"/><path fill="url(#N)" d="m1224.06 46.72-7.75 1.93 296.24 1188.14 7.74-1.93L1224.06 46.72z"/><path fill="url(#O)" d="m1149.49 67.149-7.65 2.301 353.11 1172.5 7.64-2.3-353.1-1172.501z"/><path fill="url(#P)" d="m1076.29 90.891-7.52 2.666 408.95 1154.213 7.52-2.67L1076.29 90.891z"/><path fill="url(#Q)" d="m1004.72 117.872-7.384 3.022L1461 1254.23l7.38-3.02-463.66-1133.338z"/><path fill="url(#R)" d="m934.797 148.216-7.235 3.369L1444.48 1261.64l7.24-3.36L934.797 148.216z"/><path fill="url(#S)" d="m866.81 181.762-7.068 3.706L1428.38 1269.95l7.07-3.71L866.81 181.762z"/><path fill="url(#T)" d="m800.636 218.267-6.886 4.034L1412.66 1278.9l6.89-4.04L800.636 218.267z"/><path fill="url(#U)" d="m736.472 257.679-6.691 4.351 667.639 1026.5 6.69-4.35L736.472 257.679z"/><path fill="url(#V)" d="m674.367 299.918-6.48 4.658 714.733 994.284 6.48-4.66-714.733-994.282z"/><path fill="url(#W)" d="m614.429 344.904-6.257 4.954L1368.28 1309.9l6.25-4.95-760.101-960.046z"/><path fill="url(#X)" d="m556.756 392.67-6.022 5.238 803.676 923.872 6.02-5.24-803.674-923.87z"/><path fill="url(#Y)" d="m501.272 442.748-5.772 5.512 845.69 885.58 5.77-5.51-845.688-885.582z"/><path fill="url(#Z)" d="m448.363 495.629-5.511 5.772 885.578 845.689 5.51-5.77-885.577-845.691z"/><path fill="url(#aa)" d="m397.789 550.658-5.238 6.022 923.869 803.68 5.24-6.02-923.871-803.682z"/><path fill="url(#ab)" d="m349.86 608.172-4.954 6.257 960.044 760.101 4.95-6.26-960.04-760.098z"/><path fill="url(#ac)" d="m304.596 667.888-4.658 6.48L1294.22 1389.1l4.66-6.48-994.284-714.732z"/><path fill="url(#ad)" d="m262.008 729.781-4.352 6.691L1284.16 1404.11l4.35-6.69L262.008 729.781z"/><path fill="url(#ae)" d="m222.256 793.763-4.033 6.886L1274.82 1419.56l4.03-6.89L222.256 793.763z"/><path fill="url(#af)" d="m185.472 859.735-3.706 7.068L1266.24 1435.44l3.71-7.07L185.472 859.735z"/><path fill="url(#ag)" d="m151.641 927.598-3.368 7.236L1258.42 1451.56l3.37-7.23L151.641 927.598z"/><path fill="url(#ah)" d="m121.03 997.424-3.022 7.386 1133.342 463.66 3.02-7.38L121.03 997.424z"/><path fill="url(#ai)" d="m93.568 1068.79-2.666 7.52 1154.208 408.96 2.67-7.53L93.568 1068.79z"/><path fill="url(#aj)" d="m69.438 1141.8-2.301 7.65 1172.503 353.1 2.3-7.64L69.438 1141.8z"/><path fill="url(#ak)" d="m48.786 1216.38-1.93 7.74L1235 1520.36l1.93-7.74L48.786 1216.38z"/><path fill="url(#al)" d="m31.576 1292.29-1.553 7.83 1201.117 238.27 1.55-7.83L31.576 1292.29z"/><path fill="url(#am)" d="m18.064 1369.43-1.17 7.9 1211.286 179.51 1.17-7.89L18.065 1369.43z"/><path fill="url(#an)" d="m8.149 1447.48-.782 7.94L1226 1575.34l.78-7.94L8.149 1447.48z"/><path fill="url(#ao)" d="m2.11 1526.57-.391 7.97 1223.041 60.03.39-7.97L2.11 1526.57z"/><path fill="url(#ap)" d="M1224.52 1606.49H0v7.98h1224.52v-7.98z"/><path fill="url(#aq)" d="M1224.7 1626.13 1.68 1686.58l.394 7.97L1225.1 1634.1l-.4-7.97z"/><path fill="url(#ar)" d="M1225.92 1645.74 7.266 1765.45l.78 7.94 1218.654-119.7-.78-7.95z"/><path fill="url(#as)" d="M1228.11 1664.19 16.86 1843.91l1.17 7.9 1211.26-179.73-1.18-7.89z"/><path fill="url(#at)" d="M1231.22 1682.77 30.062 1920.82l1.552 7.83L1232.77 1690.6l-1.55-7.83z"/><path fill="url(#au)" d="M1235.08 1700.51 46.984 1996.96l1.932 7.74 1188.094-296.45-1.93-7.74z"/><path fill="url(#av)" d="M1239.67 1718.63 67.047 2071.32l2.299 7.65 1172.624-352.7-2.3-7.64z"/><path fill="url(#aw)" d="M1244.93 1735.34 91.012 2145.1l2.67 7.52 1153.928-409.76-2.68-7.52z"/><path fill="url(#ax)" d="M1251.35 1752.76 117.93 2216.23l3.02 7.38 1133.42-463.46-3.02-7.39z"/><path fill="url(#ay)" d="M1258.33 1769.31 148.27 2286.23l3.369 7.23L1261.7 1776.54l-3.37-7.23z"/><path fill="url(#az)" d="M1266.21 1785.72 181.633 2354.17l3.705 7.07 1084.572-568.45-3.7-7.07z"/><path fill="url(#aA)" d="M1274.88 1801.39 218.281 2420.3l4.034 6.89 1056.595-618.91-4.03-6.89z"/><path fill="url(#aB)" d="M1284.22 1816.95 257.602 2484.4l4.35 6.69 1026.618-667.45-4.35-6.69z"/><path fill="url(#aC)" d="m1293.98 1831.89-994.035 715.08 4.661 6.48 994.034-715.08-4.66-6.48z"/><path fill="url(#aD)" d="m1305.28 1846.67-960.577 759.44 4.95 6.26 960.577-759.43-4.95-6.27z"/><path fill="url(#aE)" d="m1316.46 1860.34-923.733 803.84 5.239 6.02 923.734-803.84-5.24-6.02z"/><path fill="url(#aF)" d="m1328.37 1873.9-885.436 845.84 5.513 5.77 885.433-845.84-5.51-5.77z"/><path fill="url(#aG)" d="m1340.96 1886.82-845.226 886.03 5.775 5.51 845.221-886.03-5.77-5.51z"/><path fill="url(#aH)" d="M1354.31 1899.29 550.797 2823.3l6.022 5.24 803.521-924.01-6.03-5.24z"/><path fill="url(#aI)" d="m1368.12 1911.25-759.932 960.18 6.258 4.95 759.934-960.18-6.26-4.95z"/><path fill="url(#aJ)" d="m1382.16 1921.88-713.859 994.91 6.484 4.65 713.865-994.91-6.49-4.65z"/><path fill="url(#aK)" d="m1397.39 1932.68-667.64 1026.5 6.69 4.35 667.64-1026.5-6.69-4.35z"/><path fill="url(#aL)" d="M1412.48 1942.1 793.941 2998.91l6.888 4.03 618.541-1056.81-6.89-4.03z"/><path fill="url(#aM)" d="M1427.54 1950.38 860.602 3035.75l7.074 3.7 566.934-1085.37-7.07-3.7z"/><path fill="url(#aN)" d="M1444.51 1959.18 927.586 3069.24l7.235 3.37 516.919-1110.06-7.23-3.37z"/><path fill="url(#aO)" d="M1460.93 1966.52 997.27 3099.86l7.39 3.03 463.66-1133.34-7.39-3.03z"/><path fill="url(#aP)" d="m1477.98 1973.54-409.36 1154.07 7.52 2.67 409.36-1154.07-7.52-2.67z"/><path fill="url(#aQ)" d="m1495.03 1979.07-353.31 1172.44 7.64 2.31 353.31-1172.44-7.64-2.31z"/><path fill="url(#aR)" d="m1512.25 1984.19-295.62 1188.3 7.75 1.93 295.61-1188.3-7.74-1.93z"/><path fill="url(#aS)" d="m1530.44 1988.34-238.26 1201.11 7.83 1.55 238.26-1201.11-7.83-1.55z"/><path fill="url(#aT)" d="m1548.67 1991.9-179.09 1211.35 7.89 1.16 179.1-1211.35-7.9-1.16z"/><path fill="url(#aU)" d="m1567.81 1994.27-120.55 1218.57 7.94.79 120.56-1218.57-7.95-.79z"/><path fill="url(#aV)" d="m1587.3 1995.92-61.1 1223 7.97.39 61.1-1222.99-7.97-.4z"/><path fill="url(#aW)" d="M1614.47 1996.48h-7.98V3221h7.98V1996.48z"/><path fill="url(#aX)" d="m1634.13 1995.92-7.97.39 60.03 1223.04 7.97-.39-60.03-1223.04z"/><path fill="url(#aY)" d="m1653.36 1994.33-7.94.78 119.92 1218.63 7.94-.78-119.92-1218.63z"/><path fill="url(#aZ)" d="m1672.38 1991.54-7.9 1.17L1844 3204l7.89-1.17-179.51-1211.29z"/><path fill="url(#ba)" d="m1690.68 1988.21-7.83 1.55 238.26 1201.12 7.83-1.56-238.26-1201.11z"/><path fill="url(#bb)" d="m1708.58 1983.95-7.74 1.93 296.23 1188.15 7.75-1.93-296.24-1188.15z"/><path fill="url(#bc)" d="m1726.04 1979.13-7.64 2.3 353.1 1172.5 7.65-2.3-353.11-1172.5z"/><path fill="url(#bd)" d="m1743.25 1973.28-7.53 2.67 408.96 1154.21 7.52-2.67-408.95-1154.21z"/><path fill="url(#be)" d="m1760.14 1966.45-7.38 3.03 463.66 1133.34 7.39-3.03-463.67-1133.34z"/><path fill="url(#bf)" d="m1776.46 1959.46-7.24 3.37 516.73 1110.15 7.24-3.37-516.73-1110.15z"/><path fill="url(#bg)" d="m1792.63 1951.03-7.06 3.71 568.64 1084.47 7.06-3.7-568.64-1084.48z"/><path fill="url(#bh)" d="m1808.3 1942.2-6.88 4.03 618.91 1056.6 6.88-4.03-618.91-1056.6z"/><path fill="url(#bi)" d="m1823.56 1932.5-6.69 4.35 667.63 1026.5 6.69-4.35-667.63-1026.5z"/><path fill="url(#bj)" d="m1838.41 1922.1-6.48 4.66 714.73 994.28 6.48-4.66-714.73-994.28z"/><path fill="url(#bk)" d="m1852.76 1911.04-6.26 4.95 760.1 960.05 6.26-4.96-760.1-960.04z"/><path fill="url(#bl)" d="m1866.56 1899.55-6.02 5.24 803.68 923.87 6.02-5.24-803.68-923.87z"/><path fill="url(#bm)" d="m1879.8 1886.79-5.77 5.51 845.69 885.58 5.77-5.51-845.69-885.58z"/><path fill="url(#bn)" d="m1892.55 1874.27-5.51 5.77 885.58 845.69 5.51-5.77-885.58-845.69z"/><path fill="url(#bo)" d="m1904.53 1860.34-5.24 6.02 923.87 803.68 5.24-6.02-923.87-803.68z"/><path fill="url(#bp)" d="m1916.05 1846.49-4.95 6.26 960.04 760.1 4.96-6.25-960.05-760.11z"/><path fill="url(#bq)" d="m1926.81 1831.94-4.66 6.48 994.28 714.73 4.66-6.48-994.28-714.73z"/><path fill="url(#br)" d="m1936.82 1816.86-4.36 6.69 1026.51 667.64 4.35-6.69-1026.5-667.64z"/><path fill="url(#bs)" d="m1946.14 1801.36-4.03 6.89 1056.59 618.91 4.03-6.89-1056.59-618.91z"/><path fill="url(#bt)" d="m1954.77 1785.55-3.71 7.07 1084.48 568.64 3.71-7.07-1084.48-568.64z"/><path fill="url(#bu)" d="m1962.47 1769.1-3.37 7.23 1110.15 516.73 3.37-7.24-1110.15-516.72z"/><path fill="url(#bv)" d="m1969.8 1752.88-3.02 7.38 1133.34 463.67 3.02-7.39-1133.34-463.66z"/><path fill="url(#bw)" d="m1975.88 1735.7-2.66 7.52 1154.21 408.95 2.66-7.52-1154.21-408.95z"/><path fill="url(#bx)" d="m1981.35 1718.41-2.3 7.64 1172.5 353.1 2.3-7.64-1172.5-353.1z"/><path fill="url(#by)" d="m1986.17 1700.9-1.94 7.75 1188.15 296.23 1.93-7.74-1188.14-296.24z"/><path fill="url(#bz)" d="m1989.96 1682.86-1.56 7.83 1201.12 238.26 1.55-7.83-1201.11-238.26z"/><path fill="url(#bA)" d="m1993.06 1664.46-1.17 7.9 1211.29 179.51 1.17-7.89-1211.29-179.52z"/><path fill="url(#bB)" d="m1994.82 1645.49-.78 7.94 1218.63 119.92.78-7.94-1218.63-119.92z"/><path fill="url(#bC)" d="m1996.02 1626.19-.39 7.97 1223.04 60.03.39-7.97-1223.04-60.03z"/></g><defs><radialGradient id="b" cx="0" cy="0" r="1" gradientTransform="matrix(0 3.99043 -612.258 0 2608.74 1610.48)" gradientUnits="userSpaceOnUse"><stop stop-color="#fff"/><stop offset="1" stop-color="#fff" stop-opacity="0"/></radialGradient><radialGradient id="c" cx="0" cy="0" r="1" gradientTransform="matrix(.19563 3.98568 -611.52182 30.0154 2607.6 1560.51)" gradientUnits="userSpaceOnUse"><stop stop-color="#fff"/><stop offset="1" stop-color="#fff" stop-opacity="0"/></radialGradient><radialGradient id="d" cx="0" cy="0" r="1" gradientTransform="rotate(84.39 468.198 2191.91) scale(3.99048 612.258)" gradientUnits="userSpaceOnUse"><stop stop-color="#fff"/><stop offset="1" stop-color="#fff" stop-opacity="0"/></radialGradient><radialGradient id="e" cx="0" cy="0" r="1" gradientTransform="matrix(.58225 3.94777 -605.7055 89.33479 2597.88 1463.06)" gradientUnits="userSpaceOnUse"><stop stop-color="#fff"/><stop offset="1" stop-color="#fff" stop-opacity="0"/></radialGradient><radialGradient id="f" cx="0" cy="0" r="1" gradientTransform="rotate(78.78 433.105 2284.51) scale(3.99043 612.258)" gradientUnits="userSpaceOnUse"><stop stop-color="#fff"/><stop offset="1" stop-color="#fff" stop-opacity="0"/></radialGradient><radialGradient id="g" cx="0" cy="0" r="1" gradientTransform="rotate(76.01 414.216 2334.343) scale(3.99043 612.258)" gradientUnits="userSpaceOnUse"><stop stop-color="#fff"/><stop offset="1" stop-color="#fff" stop-opacity="0"/></radialGradient><radialGradient id="h" cx="0" cy="0" r="1" gradientTransform="matrix(1.15338 3.82016 -586.12652 176.96203 2566.49 1322.18)" gradientUnits="userSpaceOnUse"><stop stop-color="#fff"/><stop offset="1" stop-color="#fff" stop-opacity="0"/></radialGradient><radialGradient id="i" cx="0" cy="0" r="1" gradientTransform="rotate(70.48 372 2444.476) scale(3.99043 612.258)" gradientUnits="userSpaceOnUse"><stop stop-color="#fff"/><stop offset="1" stop-color="#fff" stop-opacity="0"/></radialGradient><radialGradient id="j" cx="0" cy="0" r="1" gradientTransform="matrix(1.50906 3.69414 -566.79089 231.5339 2534.84 1232.78)" gradientUnits="userSpaceOnUse"><stop stop-color="#fff"/><stop offset="1" stop-color="#fff" stop-opacity="0"/></radialGradient><radialGradient id="k" cx="0" cy="0" r="1" gradientTransform="matrix(1.682 3.61862 -555.2099 258.07329 2515.97 1189.55)" gradientUnits="userSpaceOnUse"><stop stop-color="#fff"/><stop offset="1" stop-color="#fff" stop-opacity="0"/></radialGradient><radialGradient id="l" cx="0" cy="0" r="1" gradientTransform="matrix(1.85615 3.53245 -541.98995 284.79247 2495.14 1147.63)" gradientUnits="userSpaceOnUse"><stop stop-color="#fff"/><stop offset="1" stop-color="#fff" stop-opacity="0"/></radialGradient><radialGradient id="m" cx="0" cy="0" r="1" gradientTransform="matrix(2.0187 3.44215 -528.13496 309.73105 2472.48 1106.82)" gradientUnits="userSpaceOnUse"><stop stop-color="#fff"/><stop offset="1" stop-color="#fff" stop-opacity="0"/></radialGradient><radialGradient id="n" cx="0" cy="0" r="1" gradientTransform="rotate(57 241.612 2787.554) scale(3.99048 612.258)" gradientUnits="userSpaceOnUse"><stop stop-color="#fff"/><stop offset="1" stop-color="#fff" stop-opacity="0"/></radialGradient><radialGradient id="o" cx="0" cy="0" r="1" gradientTransform="rotate(54.28 207.473 2876.392) scale(3.99043 612.258)" gradientUnits="userSpaceOnUse"><stop stop-color="#fff"/><stop offset="1" stop-color="#fff" stop-opacity="0"/></radialGradient><radialGradient id="p" cx="0" cy="0" r="1" gradientTransform="rotate(51.61 171.744 2970.726) scale(3.99043 612.258)" gradientUnits="userSpaceOnUse"><stop stop-color="#fff"/><stop offset="1" stop-color="#fff" stop-opacity="0"/></radialGradient><radialGradient id="q" cx="0" cy="0" r="1" gradientTransform="rotate(48.98 132.878 3072.7) scale(3.99043 612.258)" gradientUnits="userSpaceOnUse"><stop stop-color="#fff"/><stop offset="1" stop-color="#fff" stop-opacity="0"/></radialGradient><radialGradient id="r" cx="0" cy="0" r="1" gradientTransform="matrix(2.7544 2.88735 -443.01139 422.61184 2332.62 921.345)" gradientUnits="userSpaceOnUse"><stop stop-color="#fff"/><stop offset="1" stop-color="#fff" stop-opacity="0"/></radialGradient><radialGradient id="s" cx="0" cy="0" r="1" gradientTransform="rotate(43.63 40.001 3317.068) scale(3.99048 612.258)" gradientUnits="userSpaceOnUse"><stop stop-color="#fff"/><stop offset="1" stop-color="#fff" stop-opacity="0"/></radialGradient><radialGradient id="t" cx="0" cy="0" r="1" gradientTransform="matrix(3.01028 2.61957 -401.91928 461.8666 2265.44 857.112)" gradientUnits="userSpaceOnUse"><stop stop-color="#fff"/><stop offset="1" stop-color="#fff" stop-opacity="0"/></radialGradient><radialGradient id="u" cx="0" cy="0" r="1" gradientTransform="rotate(38.35 -74.845 3619.614) scale(3.99045 612.259)" gradientUnits="userSpaceOnUse"><stop stop-color="#fff"/><stop offset="1" stop-color="#fff" stop-opacity="0"/></radialGradient><radialGradient id="v" cx="0" cy="0" r="1" gradientTransform="rotate(35.69 -145.066 3804.658) scale(3.99045 612.258)" gradientUnits="userSpaceOnUse"><stop stop-color="#fff"/><stop offset="1" stop-color="#fff" stop-opacity="0"/></radialGradient><radialGradient id="w" cx="0" cy="0" r="1" gradientTransform="rotate(32.99 -228.147 4023.406) scale(3.99045 612.258)" gradientUnits="userSpaceOnUse"><stop stop-color="#fff"/><stop offset="1" stop-color="#fff" stop-opacity="0"/></radialGradient><radialGradient id="x" cx="0" cy="0" r="1" gradientTransform="matrix(3.4429 2.01752 -309.54668 528.24304 2114.26 748.478)" gradientUnits="userSpaceOnUse"><stop stop-color="#fff"/><stop offset="1" stop-color="#fff" stop-opacity="0"/></radialGradient><radialGradient id="y" cx="0" cy="0" r="1" gradientTransform="rotate(27.68 -436.34 4570.884) scale(3.99045 612.258)" gradientUnits="userSpaceOnUse"><stop stop-color="#fff"/><stop offset="1" stop-color="#fff" stop-opacity="0"/></radialGradient><radialGradient id="z" cx="0" cy="0" r="1" gradientTransform="matrix(3.61628 1.68707 -258.84826 554.84902 2031.25 704.97)" gradientUnits="userSpaceOnUse"><stop stop-color="#fff"/><stop offset="1" stop-color="#fff" stop-opacity="0"/></radialGradient><radialGradient id="A" cx="0" cy="0" r="1" gradientTransform="matrix(3.69332 1.51098 -231.83065 566.66958 1988.21 686.2)" gradientUnits="userSpaceOnUse"><stop stop-color="#fff"/><stop offset="1" stop-color="#fff" stop-opacity="0"/></radialGradient><radialGradient id="B" cx="0" cy="0" r="1" gradientTransform="rotate(19.45 -980.611 6005.935) scale(3.99048 612.258)" gradientUnits="userSpaceOnUse"><stop stop-color="#fff"/><stop offset="1" stop-color="#fff" stop-opacity="0"/></radialGradient><radialGradient id="C" cx="0" cy="0" r="1" gradientTransform="matrix(3.82074 1.15137 -176.65511 586.2191 1898.88 654.569)" gradientUnits="userSpaceOnUse"><stop stop-color="#fff"/><stop offset="1" stop-color="#fff" stop-opacity="0"/></radialGradient><radialGradient id="D" cx="0" cy="0" r="1" gradientTransform="rotate(13.96 -1694.663 7886.784) scale(3.99048 612.258)" gradientUnits="userSpaceOnUse"><stop stop-color="#fff"/><stop offset="1" stop-color="#fff" stop-opacity="0"/></radialGradient><radialGradient id="E" cx="0" cy="0" r="1" gradientTransform="matrix(3.91475 .77372 -118.71188 600.63912 1805.82 631.4)" gradientUnits="userSpaceOnUse"><stop stop-color="#fff"/><stop offset="1" stop-color="#fff" stop-opacity="0"/></radialGradient><radialGradient id="F" cx="0" cy="0" r="1" gradientTransform="rotate(8.43 -3348.136 12238.282) scale(3.99048 612.258)" gradientUnits="userSpaceOnUse"><stop stop-color="#fff"/><stop offset="1" stop-color="#fff" stop-opacity="0"/></radialGradient><radialGradient id="G" cx="0" cy="0" r="1" gradientTransform="matrix(3.9712 .39148 -60.06495 609.30457 1709.61 617.161)" gradientUnits="userSpaceOnUse"><stop stop-color="#fff"/><stop offset="1" stop-color="#fff" stop-opacity="0"/></radialGradient><radialGradient id="H" cx="0" cy="0" r="1" gradientTransform="rotate(2.78 -11809.641 34517.11) scale(3.99045 612.258)" gradientUnits="userSpaceOnUse"><stop stop-color="#fff"/><stop offset="1" stop-color="#fff" stop-opacity="0"/></radialGradient><radialGradient id="I" cx="0" cy="0" r="1" gradientTransform="matrix(0 612.258 -3.99043 0 1610.48 612.258)" gradientUnits="userSpaceOnUse"><stop stop-color="#fff"/><stop offset="1" stop-color="#fff" stop-opacity="0"/></radialGradient><radialGradient id="J" cx="0" cy="0" r="1" gradientTransform="matrix(30.0154 611.52182 -3.98568 .19563 1560.63 613.567)" gradientUnits="userSpaceOnUse"><stop stop-color="#fff"/><stop offset="1" stop-color="#fff" stop-opacity="0"/></radialGradient><radialGradient id="K" cx="0" cy="0" r="1" gradientTransform="matrix(59.9586 609.31505 -3.9713 .39079 1511.48 617.204)" gradientUnits="userSpaceOnUse"><stop stop-color="#fff"/><stop offset="1" stop-color="#fff" stop-opacity="0"/></radialGradient><radialGradient id="L" cx="0" cy="0" r="1" gradientTransform="rotate(81.57 370.485 1159.375) scale(612.258 3.99043)" gradientUnits="userSpaceOnUse"><stop stop-color="#fff"/><stop offset="1" stop-color="#fff" stop-opacity="0"/></radialGradient><radialGradient id="M" cx="0" cy="0" r="1" gradientTransform="rotate(78.78 323.22 1177.425) scale(612.258 3.99043)" gradientUnits="userSpaceOnUse"><stop stop-color="#fff"/><stop offset="1" stop-color="#fff" stop-opacity="0"/></radialGradient><radialGradient id="N" cx="0" cy="0" r="1" gradientTransform="matrix(148.11862 594.07132 -3.8719 .96537 1368.3 641.757)" gradientUnits="userSpaceOnUse"><stop stop-color="#fff"/><stop offset="1" stop-color="#fff" stop-opacity="0"/></radialGradient><radialGradient id="O" cx="0" cy="0" r="1" gradientTransform="matrix(176.5528 586.24992 -3.82097 1.1507 1322.22 654.55)" gradientUnits="userSpaceOnUse"><stop stop-color="#fff"/><stop offset="1" stop-color="#fff" stop-opacity="0"/></radialGradient><radialGradient id="P" cx="0" cy="0" r="1" gradientTransform="rotate(70.49 164.874 1238.288) scale(612.258 3.99043)" gradientUnits="userSpaceOnUse"><stop stop-color="#fff"/><stop offset="1" stop-color="#fff" stop-opacity="0"/></radialGradient><radialGradient id="Q" cx="0" cy="0" r="1" gradientTransform="matrix(231.83065 566.66958 -3.69335 1.51099 1232.86 686.053)" gradientUnits="userSpaceOnUse"><stop stop-color="#fff"/><stop offset="1" stop-color="#fff" stop-opacity="0"/></radialGradient><radialGradient id="R" cx="0" cy="0" r="1" gradientTransform="matrix(258.46083 555.0296 -3.61744 1.68453 1189.64 704.93)" gradientUnits="userSpaceOnUse"><stop stop-color="#fff"/><stop offset="1" stop-color="#fff" stop-opacity="0"/></radialGradient><radialGradient id="S" cx="0" cy="0" r="1" gradientTransform="matrix(284.31938 542.23827 -3.53407 1.85307 1147.6 725.853)" gradientUnits="userSpaceOnUse"><stop stop-color="#fff"/><stop offset="1" stop-color="#fff" stop-opacity="0"/></radialGradient><radialGradient id="T" cx="0" cy="0" r="1" gradientTransform="matrix(309.45447 528.29706 -3.4432 2.01689 1106.65 748.581)" gradientUnits="userSpaceOnUse"><stop stop-color="#fff"/><stop offset="1" stop-color="#fff" stop-opacity="0"/></radialGradient><radialGradient id="U" cx="0" cy="0" r="1" gradientTransform="rotate(56.96 -179.064 1369.9) scale(612.258 3.99043)" gradientUnits="userSpaceOnUse"><stop stop-color="#fff"/><stop offset="1" stop-color="#fff" stop-opacity="0"/></radialGradient><radialGradient id="V" cx="0" cy="0" r="1" gradientTransform="matrix(357.36455 497.14227 -3.24016 2.32915 1028.49 799.39)" gradientUnits="userSpaceOnUse"><stop stop-color="#fff"/><stop offset="1" stop-color="#fff" stop-opacity="0"/></radialGradient><radialGradient id="W" cx="0" cy="0" r="1" gradientTransform="rotate(51.63 -359.535 1438.372) scale(612.258 3.99043)" gradientUnits="userSpaceOnUse"><stop stop-color="#fff"/><stop offset="1" stop-color="#fff" stop-opacity="0"/></radialGradient><radialGradient id="X" cx="0" cy="0" r="1" gradientTransform="rotate(48.98 -463.149 1477.517) scale(612.258 3.99043)" gradientUnits="userSpaceOnUse"><stop stop-color="#fff"/><stop offset="1" stop-color="#fff" stop-opacity="0"/></radialGradient><radialGradient id="Y" cx="0" cy="0" r="1" gradientTransform="rotate(46.32 -577.659 1520.918) scale(612.258 3.99043)" gradientUnits="userSpaceOnUse"><stop stop-color="#fff"/><stop offset="1" stop-color="#fff" stop-opacity="0"/></radialGradient><radialGradient id="Z" cx="0" cy="0" r="1" gradientTransform="matrix(442.79005 422.84375 -2.75595 2.88595 888.398 921.359)" gradientUnits="userSpaceOnUse"><stop stop-color="#fff"/><stop offset="1" stop-color="#fff" stop-opacity="0"/></radialGradient><radialGradient id="aa" cx="0" cy="0" r="1" gradientTransform="rotate(41.02 -848.578 1623.363) scale(612.258 3.99048)" gradientUnits="userSpaceOnUse"><stop stop-color="#fff"/><stop offset="1" stop-color="#fff" stop-opacity="0"/></radialGradient><radialGradient id="ab" cx="0" cy="0" r="1" gradientTransform="rotate(38.37 -1010.886 1684.67) scale(612.258 3.99045)" gradientUnits="userSpaceOnUse"><stop stop-color="#fff"/><stop offset="1" stop-color="#fff" stop-opacity="0"/></radialGradient><radialGradient id="ac" cx="0" cy="0" r="1" gradientTransform="rotate(35.71 -1196.714 1755.085) scale(612.258 3.99045)" gradientUnits="userSpaceOnUse"><stop stop-color="#fff"/><stop offset="1" stop-color="#fff" stop-opacity="0"/></radialGradient><radialGradient id="ad" cx="0" cy="0" r="1" gradientTransform="matrix(513.25068 333.81855 -2.1757 3.34518 773.082 1066.94)" gradientUnits="userSpaceOnUse"><stop stop-color="#fff"/><stop offset="1" stop-color="#fff" stop-opacity="0"/></radialGradient><radialGradient id="ae" cx="0" cy="0" r="1" gradientTransform="rotate(30.36 -1665.138 1932.77) scale(612.258 3.99048)" gradientUnits="userSpaceOnUse"><stop stop-color="#fff"/><stop offset="1" stop-color="#fff" stop-opacity="0"/></radialGradient><radialGradient id="af" cx="0" cy="0" r="1" gradientTransform="rotate(27.67 -1967.001 2047.488) scale(612.258 3.99045)" gradientUnits="userSpaceOnUse"><stop stop-color="#fff"/><stop offset="1" stop-color="#fff" stop-opacity="0"/></radialGradient><radialGradient id="ag" cx="0" cy="0" r="1" gradientTransform="rotate(24.96 -2334.847 2187.518) scale(612.258 3.99045)" gradientUnits="userSpaceOnUse"><stop stop-color="#fff"/><stop offset="1" stop-color="#fff" stop-opacity="0"/></radialGradient><radialGradient id="ah" cx="0" cy="0" r="1" gradientTransform="matrix(566.66958 231.83065 -1.51098 3.69332 686.189 1232.95)" gradientUnits="userSpaceOnUse"><stop stop-color="#fff"/><stop offset="1" stop-color="#fff" stop-opacity="0"/></radialGradient><radialGradient id="ai" cx="0" cy="0" r="1" gradientTransform="rotate(19.51 -3379.327 2585.162) scale(612.258 3.99048)" gradientUnits="userSpaceOnUse"><stop stop-color="#fff"/><stop offset="1" stop-color="#fff" stop-opacity="0"/></radialGradient><radialGradient id="aj" cx="0" cy="0" r="1" gradientTransform="rotate(16.76 -4160.463 2882.717) scale(612.258 3.99045)" gradientUnits="userSpaceOnUse"><stop stop-color="#fff"/><stop offset="1" stop-color="#fff" stop-opacity="0"/></radialGradient><radialGradient id="ak" cx="0" cy="0" r="1" gradientTransform="matrix(594.07132 148.11862 -.96538 3.87195 641.893 1368.37)" gradientUnits="userSpaceOnUse"><stop stop-color="#fff"/><stop offset="1" stop-color="#fff" stop-opacity="0"/></radialGradient><radialGradient id="al" cx="0" cy="0" r="1" gradientTransform="matrix(600.5561 119.13118 -.77645 3.91421 631.356 1415.34)" gradientUnits="userSpaceOnUse"><stop stop-color="#fff"/><stop offset="1" stop-color="#fff" stop-opacity="0"/></radialGradient><radialGradient id="am" cx="0" cy="0" r="1" gradientTransform="rotate(8.43 -9614.947 4959.078) scale(612.258 3.99048)" gradientUnits="userSpaceOnUse"><stop stop-color="#fff"/><stop offset="1" stop-color="#fff" stop-opacity="0"/></radialGradient><radialGradient id="an" cx="0" cy="0" r="1" gradientTransform="matrix(609.31505 59.9586 -.39079 3.97127 617.073 1511.41)" gradientUnits="userSpaceOnUse"><stop stop-color="#fff"/><stop offset="1" stop-color="#fff" stop-opacity="0"/></radialGradient><radialGradient id="ao" cx="0" cy="0" r="1" gradientTransform="matrix(611.52182 30.0154 -.19563 3.98565 613.437 1560.57)" gradientUnits="userSpaceOnUse"><stop stop-color="#fff"/><stop offset="1" stop-color="#fff" stop-opacity="0"/></radialGradient><radialGradient id="ap" cx="0" cy="0" r="1" gradientTransform="matrix(0 3.99043 -612.258 0 612.258 1610.48)" gradientUnits="userSpaceOnUse"><stop stop-color="#fff"/><stop offset="1" stop-color="#fff" stop-opacity="0"/></radialGradient><radialGradient id="aq" cx="0" cy="0" r="1" gradientTransform="rotate(87.17 -565.528 1152.4) scale(3.99048 612.258)" gradientUnits="userSpaceOnUse"><stop stop-color="#fff"/><stop offset="1" stop-color="#fff" stop-opacity="0"/></radialGradient><radialGradient id="ar" cx="0" cy="0" r="1" gradientTransform="rotate(84.39 -634.37 1195.063) scale(3.99048 612.258)" gradientUnits="userSpaceOnUse"><stop stop-color="#fff"/><stop offset="1" stop-color="#fff" stop-opacity="0"/></radialGradient><radialGradient id="as" cx="0" cy="0" r="1" gradientTransform="rotate(81.56 -707.514 1240.173) scale(3.99043 612.259)" gradientUnits="userSpaceOnUse"><stop stop-color="#fff"/><stop offset="1" stop-color="#fff" stop-opacity="0"/></radialGradient><radialGradient id="at" cx="0" cy="0" r="1" gradientTransform="rotate(78.79 -783.641 1287.273) scale(3.99048 612.259)" gradientUnits="userSpaceOnUse"><stop stop-color="#fff"/><stop offset="1" stop-color="#fff" stop-opacity="0"/></radialGradient><radialGradient id="au" cx="0" cy="0" r="1" gradientTransform="matrix(.96605 3.87173 -594.04546 148.2223 641.996 1852.61)" gradientUnits="userSpaceOnUse"><stop stop-color="#fff"/><stop offset="1" stop-color="#fff" stop-opacity="0"/></radialGradient><radialGradient id="av" cx="0" cy="0" r="1" gradientTransform="matrix(1.14936 3.82132 -586.31151 176.34814 654.508 1898.8)" gradientUnits="userSpaceOnUse"><stop stop-color="#fff"/><stop offset="1" stop-color="#fff" stop-opacity="0"/></radialGradient><radialGradient id="aw" cx="0" cy="0" r="1" gradientTransform="rotate(70.45 -1041.954 1445.954) scale(3.99043 612.258)" gradientUnits="userSpaceOnUse"><stop stop-color="#fff"/><stop offset="1" stop-color="#fff" stop-opacity="0"/></radialGradient><radialGradient id="ax" cx="0" cy="0" r="1" gradientTransform="rotate(67.76 -1137.41 1505.03) scale(3.99054 612.258)" gradientUnits="userSpaceOnUse"><stop stop-color="#fff"/><stop offset="1" stop-color="#fff" stop-opacity="0"/></radialGradient><radialGradient id="ay" cx="0" cy="0" r="1" gradientTransform="matrix(1.68458 3.61754 -555.0296 258.46083 704.984 2031.39)" gradientUnits="userSpaceOnUse"><stop stop-color="#fff"/><stop offset="1" stop-color="#fff" stop-opacity="0"/></radialGradient><radialGradient id="az" cx="0" cy="0" r="1" gradientTransform="matrix(1.8525 3.5345 -542.28789 284.22474 725.774 2073.48)" gradientUnits="userSpaceOnUse"><stop stop-color="#fff"/><stop offset="1" stop-color="#fff" stop-opacity="0"/></radialGradient><radialGradient id="aA" cx="0" cy="0" r="1" gradientTransform="matrix(2.01694 3.4433 -528.29706 309.45447 748.596 2114.29)" gradientUnits="userSpaceOnUse"><stop stop-color="#fff"/><stop offset="1" stop-color="#fff" stop-opacity="0"/></radialGradient><radialGradient id="aB" cx="0" cy="0" r="1" gradientTransform="matrix(2.1751 3.34552 -513.3081 333.72842 773.085 2154.02)" gradientUnits="userSpaceOnUse"><stop stop-color="#fff"/><stop offset="1" stop-color="#fff" stop-opacity="0"/></radialGradient><radialGradient id="aC" cx="0" cy="0" r="1" gradientTransform="rotate(54.27 -1739.557 1876.138) scale(3.99043 612.258)" gradientUnits="userSpaceOnUse"><stop stop-color="#fff"/><stop offset="1" stop-color="#fff" stop-opacity="0"/></radialGradient><radialGradient id="aD" cx="0" cy="0" r="1" gradientTransform="rotate(51.67 -1888.669 1969.274) scale(3.99043 612.258)" gradientUnits="userSpaceOnUse"><stop stop-color="#fff"/><stop offset="1" stop-color="#fff" stop-opacity="0"/></radialGradient><radialGradient id="aE" cx="0" cy="0" r="1" gradientTransform="rotate(48.97 -2058.46 2073.779) scale(3.99043 612.258)" gradientUnits="userSpaceOnUse"><stop stop-color="#fff"/><stop offset="1" stop-color="#fff" stop-opacity="0"/></radialGradient><radialGradient id="aF" cx="0" cy="0" r="1" gradientTransform="rotate(46.31 -2244.44 2188.512) scale(3.99054 612.258)" gradientUnits="userSpaceOnUse"><stop stop-color="#fff"/><stop offset="1" stop-color="#fff" stop-opacity="0"/></radialGradient><radialGradient id="aG" cx="0" cy="0" r="1" gradientTransform="rotate(43.65 -2451.643 2316.464) scale(3.99043 612.258)" gradientUnits="userSpaceOnUse"><stop stop-color="#fff"/><stop offset="1" stop-color="#fff" stop-opacity="0"/></radialGradient><radialGradient id="aH" cx="0" cy="0" r="1" gradientTransform="rotate(41.01 -2682.672 2459.509) scale(3.99043 612.258)" gradientUnits="userSpaceOnUse"><stop stop-color="#fff"/><stop offset="1" stop-color="#fff" stop-opacity="0"/></radialGradient><radialGradient id="aI" cx="0" cy="0" r="1" gradientTransform="matrix(3.129 2.47646 -379.96825 480.08876 991.284 2393.82)" gradientUnits="userSpaceOnUse"><stop stop-color="#fff"/><stop offset="1" stop-color="#fff" stop-opacity="0"/></radialGradient><radialGradient id="aJ" cx="0" cy="0" r="1" gradientTransform="rotate(35.66 -3250.286 2809.608) scale(3.99043 612.258)" gradientUnits="userSpaceOnUse"><stop stop-color="#fff"/><stop offset="1" stop-color="#fff" stop-opacity="0"/></radialGradient><radialGradient id="aK" cx="0" cy="0" r="1" gradientTransform="matrix(3.34514 2.17568 -333.81855 513.25068 1066.91 2448.1)" gradientUnits="userSpaceOnUse"><stop stop-color="#fff"/><stop offset="1" stop-color="#fff" stop-opacity="0"/></radialGradient><radialGradient id="aL" cx="0" cy="0" r="1" gradientTransform="rotate(30.34 -4006.297 3277.075) scale(3.99054 612.258)" gradientUnits="userSpaceOnUse"><stop stop-color="#fff"/><stop offset="1" stop-color="#fff" stop-opacity="0"/></radialGradient><radialGradient id="aM" cx="0" cy="0" r="1" gradientTransform="matrix(3.53698 1.84752 -283.46729 542.68421 1147.61 2494.91)" gradientUnits="userSpaceOnUse"><stop stop-color="#fff"/><stop offset="1" stop-color="#fff" stop-opacity="0"/></radialGradient><radialGradient id="aN" cx="0" cy="0" r="1" gradientTransform="rotate(24.97 -5086.432 3944.378) scale(3.99043 612.258)" gradientUnits="userSpaceOnUse"><stop stop-color="#fff"/><stop offset="1" stop-color="#fff" stop-opacity="0"/></radialGradient><radialGradient id="aO" cx="0" cy="0" r="1" gradientTransform="matrix(3.6933 1.51097 -231.83065 566.66958 1232.79 2534.71)" gradientUnits="userSpaceOnUse"><stop stop-color="#fff"/><stop offset="1" stop-color="#fff" stop-opacity="0"/></radialGradient><radialGradient id="aP" cx="0" cy="0" r="1" gradientTransform="matrix(3.76085 1.334 -204.67808 577.0327 1277.06 2551.91)" gradientUnits="userSpaceOnUse"><stop stop-color="#fff"/><stop offset="1" stop-color="#fff" stop-opacity="0"/></radialGradient><radialGradient id="aQ" cx="0" cy="0" r="1" gradientTransform="matrix(3.82072 1.15136 -176.65511 586.2191 1322.19 2566.45)" gradientUnits="userSpaceOnUse"><stop stop-color="#fff"/><stop offset="1" stop-color="#fff" stop-opacity="0"/></radialGradient><radialGradient id="aR" cx="0" cy="0" r="1" gradientTransform="rotate(13.97 -9841.983 6873.73) scale(3.99054 612.258)" gradientUnits="userSpaceOnUse"><stop stop-color="#fff"/><stop offset="1" stop-color="#fff" stop-opacity="0"/></radialGradient><radialGradient id="aS" cx="0" cy="0" r="1" gradientTransform="matrix(3.91427 .77647 -119.13118 600.5561 1415.23 2589.67)" gradientUnits="userSpaceOnUse"><stop stop-color="#fff"/><stop offset="1" stop-color="#fff" stop-opacity="0"/></radialGradient><radialGradient id="aT" cx="0" cy="0" r="1" gradientTransform="rotate(8.41 -16937.458 11248.804) scale(3.99043 612.258)" gradientUnits="userSpaceOnUse"><stop stop-color="#fff"/><stop offset="1" stop-color="#fff" stop-opacity="0"/></radialGradient><radialGradient id="aU" cx="0" cy="0" r="1" gradientTransform="matrix(3.97104 .39286 -60.27763 609.28357 1511.51 2603.95)" gradientUnits="userSpaceOnUse"><stop stop-color="#fff"/><stop offset="1" stop-color="#fff" stop-opacity="0"/></radialGradient><radialGradient id="aV" cx="0" cy="0" r="1" gradientTransform="matrix(3.98557 .19911 -30.54904 611.4954 1560.74 2607.62)" gradientUnits="userSpaceOnUse"><stop stop-color="#fff"/><stop offset="1" stop-color="#fff" stop-opacity="0"/></radialGradient><radialGradient id="aW" cx="0" cy="0" r="1" gradientTransform="matrix(0 612.258 -3.99043 0 1610.48 2608.74)" gradientUnits="userSpaceOnUse"><stop stop-color="#fff"/><stop offset="1" stop-color="#fff" stop-opacity="0"/></radialGradient><radialGradient id="aX" cx="0" cy="0" r="1" gradientTransform="matrix(30.0154 611.52182 -3.98568 .19563 1660.16 2607.63)" gradientUnits="userSpaceOnUse"><stop stop-color="#fff"/><stop offset="1" stop-color="#fff" stop-opacity="0"/></radialGradient><radialGradient id="aY" cx="0" cy="0" r="1" gradientTransform="matrix(59.9587 609.31604 -3.9713 .39079 1709.35 2604.04)" gradientUnits="userSpaceOnUse"><stop stop-color="#fff"/><stop offset="1" stop-color="#fff" stop-opacity="0"/></radialGradient><radialGradient id="aZ" cx="0" cy="0" r="1" gradientTransform="rotate(81.57 -626.474 2317.866) scale(612.258 3.99043)" gradientUnits="userSpaceOnUse"><stop stop-color="#fff"/><stop offset="1" stop-color="#fff" stop-opacity="0"/></radialGradient><radialGradient id="ba" cx="0" cy="0" r="1" gradientTransform="rotate(78.78 -673.89 2394.43) scale(612.258 3.99048)" gradientUnits="userSpaceOnUse"><stop stop-color="#fff"/><stop offset="1" stop-color="#fff" stop-opacity="0"/></radialGradient><radialGradient id="bb" cx="0" cy="0" r="1" gradientTransform="matrix(148.11862 594.07132 -3.8719 .96537 1852.83 2578.99)" gradientUnits="userSpaceOnUse"><stop stop-color="#fff"/><stop offset="1" stop-color="#fff" stop-opacity="0"/></radialGradient><radialGradient id="bc" cx="0" cy="0" r="1" gradientTransform="rotate(73.24 -777.273 2560.681) scale(612.258 3.99043)" gradientUnits="userSpaceOnUse"><stop stop-color="#fff"/><stop offset="1" stop-color="#fff" stop-opacity="0"/></radialGradient><radialGradient id="bd" cx="0" cy="0" r="1" gradientTransform="rotate(70.49 -833.654 2651.435) scale(612.258 3.99043)" gradientUnits="userSpaceOnUse"><stop stop-color="#fff"/><stop offset="1" stop-color="#fff" stop-opacity="0"/></radialGradient><radialGradient id="be" cx="0" cy="0" r="1" gradientTransform="matrix(231.83065 566.66958 -3.6934 1.51101 1988.28 2534.64)" gradientUnits="userSpaceOnUse"><stop stop-color="#fff"/><stop offset="1" stop-color="#fff" stop-opacity="0"/></radialGradient><radialGradient id="bf" cx="0" cy="0" r="1" gradientTransform="rotate(65.04 -957.717 2851.055) scale(612.258 3.99054)" gradientUnits="userSpaceOnUse"><stop stop-color="#fff"/><stop offset="1" stop-color="#fff" stop-opacity="0"/></radialGradient><radialGradient id="bg" cx="0" cy="0" r="1" gradientTransform="rotate(62.33 -1026.1 2961.734) scale(612.258 3.99054)" gradientUnits="userSpaceOnUse"><stop stop-color="#fff"/><stop offset="1" stop-color="#fff" stop-opacity="0"/></radialGradient><radialGradient id="bh" cx="0" cy="0" r="1" gradientTransform="matrix(309.45447 528.29706 -3.4433 2.01694 2114.32 2472.51)" gradientUnits="userSpaceOnUse"><stop stop-color="#fff"/><stop offset="1" stop-color="#fff" stop-opacity="0"/></radialGradient><radialGradient id="bi" cx="0" cy="0" r="1" gradientTransform="matrix(333.81855 513.25068 -3.34514 2.17568 2154.03 2447.93)" gradientUnits="userSpaceOnUse"><stop stop-color="#fff"/><stop offset="1" stop-color="#fff" stop-opacity="0"/></radialGradient><radialGradient id="bj" cx="0" cy="0" r="1" gradientTransform="matrix(357.36455 497.14227 -3.24016 2.32915 2192.54 2421.57)" gradientUnits="userSpaceOnUse"><stop stop-color="#fff"/><stop offset="1" stop-color="#fff" stop-opacity="0"/></radialGradient><radialGradient id="bk" cx="0" cy="0" r="1" gradientTransform="rotate(51.63 -1359.145 3501.387) scale(612.258 3.99043)" gradientUnits="userSpaceOnUse"><stop stop-color="#fff"/><stop offset="1" stop-color="#fff" stop-opacity="0"/></radialGradient><radialGradient id="bl" cx="0" cy="0" r="1" gradientTransform="rotate(48.98 -1462.277 3668.672) scale(612.258 3.99043)" gradientUnits="userSpaceOnUse"><stop stop-color="#fff"/><stop offset="1" stop-color="#fff" stop-opacity="0"/></radialGradient><radialGradient id="bm" cx="0" cy="0" r="1" gradientTransform="rotate(46.32 -1576.253 3854.222) scale(612.258 3.99054)" gradientUnits="userSpaceOnUse"><stop stop-color="#fff"/><stop offset="1" stop-color="#fff" stop-opacity="0"/></radialGradient><radialGradient id="bn" cx="0" cy="0" r="1" gradientTransform="matrix(442.79005 422.84375 -2.75591 2.88591 2332.58 2300)" gradientUnits="userSpaceOnUse"><stop stop-color="#fff"/><stop offset="1" stop-color="#fff" stop-opacity="0"/></radialGradient><radialGradient id="bo" cx="0" cy="0" r="1" gradientTransform="rotate(41.02 -1845.727 4292.116) scale(612.258 3.99043)" gradientUnits="userSpaceOnUse"><stop stop-color="#fff"/><stop offset="1" stop-color="#fff" stop-opacity="0"/></radialGradient><radialGradient id="bp" cx="0" cy="0" r="1" gradientTransform="rotate(38.37 -2007.27 4554.476) scale(612.258 3.99043)" gradientUnits="userSpaceOnUse"><stop stop-color="#fff"/><stop offset="1" stop-color="#fff" stop-opacity="0"/></radialGradient><radialGradient id="bq" cx="0" cy="0" r="1" gradientTransform="matrix(497.14227 357.36455 -2.32915 3.24016 2421.62 2192.55)" gradientUnits="userSpaceOnUse"><stop stop-color="#fff"/><stop offset="1" stop-color="#fff" stop-opacity="0"/></radialGradient><radialGradient id="br" cx="0" cy="0" r="1" gradientTransform="matrix(513.25068 333.81855 -2.17568 3.34514 2447.89 2154.02)" gradientUnits="userSpaceOnUse"><stop stop-color="#fff"/><stop offset="1" stop-color="#fff" stop-opacity="0"/></radialGradient><radialGradient id="bs" cx="0" cy="0" r="1" gradientTransform="matrix(528.29706 309.45447 -2.01694 3.4433 2472.42 2114.26)" gradientUnits="userSpaceOnUse"><stop stop-color="#fff"/><stop offset="1" stop-color="#fff" stop-opacity="0"/></radialGradient><radialGradient id="bt" cx="0" cy="0" r="1" gradientTransform="rotate(27.67 -2962.009 6102.555) scale(612.258 3.99043)" gradientUnits="userSpaceOnUse"><stop stop-color="#fff"/><stop offset="1" stop-color="#fff" stop-opacity="0"/></radialGradient><radialGradient id="bu" cx="0" cy="0" r="1" gradientTransform="matrix(555.0747 258.36396 -1.6839 3.61773 2515.86 2031.08)" gradientUnits="userSpaceOnUse"><stop stop-color="#fff"/><stop offset="1" stop-color="#fff" stop-opacity="0"/></radialGradient><radialGradient id="bv" cx="0" cy="0" r="1" gradientTransform="matrix(566.66958 231.83065 -1.51101 3.6934 2534.96 1988.4)" gradientUnits="userSpaceOnUse"><stop stop-color="#fff"/><stop offset="1" stop-color="#fff" stop-opacity="0"/></radialGradient><radialGradient id="bw" cx="0" cy="0" r="1" gradientTransform="rotate(19.51 -4377.746 8392.983) scale(612.258 3.99043)" gradientUnits="userSpaceOnUse"><stop stop-color="#fff"/><stop offset="1" stop-color="#fff" stop-opacity="0"/></radialGradient><radialGradient id="bx" cx="0" cy="0" r="1" gradientTransform="rotate(16.76 -5161.598 9660.412) scale(612.258 3.99043)" gradientUnits="userSpaceOnUse"><stop stop-color="#fff"/><stop offset="1" stop-color="#fff" stop-opacity="0"/></radialGradient><radialGradient id="by" cx="0" cy="0" r="1" gradientTransform="rotate(14 -6255.654 11429.68) scale(612.258 3.99054)" gradientUnits="userSpaceOnUse"><stop stop-color="#fff"/><stop offset="1" stop-color="#fff" stop-opacity="0"/></radialGradient><radialGradient id="bz" cx="0" cy="0" r="1" gradientTransform="matrix(600.5561 119.13118 -.77647 3.91427 2589.74 1805.91)" gradientUnits="userSpaceOnUse"><stop stop-color="#fff"/><stop offset="1" stop-color="#fff" stop-opacity="0"/></radialGradient><radialGradient id="bA" cx="0" cy="0" r="1" gradientTransform="rotate(8.43 -10629.046 18505.737) scale(612.258 3.99054)" gradientUnits="userSpaceOnUse"><stop stop-color="#fff"/><stop offset="1" stop-color="#fff" stop-opacity="0"/></radialGradient><radialGradient id="bB" cx="0" cy="0" r="1" gradientTransform="matrix(609.31505 59.9586 -.39078 3.97125 2603.75 1709.42)" gradientUnits="userSpaceOnUse"><stop stop-color="#fff"/><stop offset="1" stop-color="#fff" stop-opacity="0"/></radialGradient><radialGradient id="bC" cx="0" cy="0" r="1" gradientTransform="matrix(611.52182 30.0154 -.19563 3.98574 2607.35 1660.19)" gradientUnits="userSpaceOnUse"><stop stop-color="#fff"/><stop offset="1" stop-color="#fff" stop-opacity="0"/></radialGradient><clipPath id="a"><path fill="#fff" d="M0 0h3221v3221H0z"/></clipPath></defs></svg>